<svg width="330" height="67" viewBox="0 0 330 67" fill="none" xmlns="http://www.w3.org/2000/svg">
<path d="M0 8.70559C0 3.89763 3.89762 0 8.70558 0H320.794C325.602 0 329.5 3.89762 329.5 8.70558V29.7585C329.5 34.5665 325.602 38.4641 320.794 38.4641H275.706C270.898 38.4641 267 42.3617 267 47.1697V53.5V57.4569C267 62.2648 263.102 66.1624 258.294 66.1624H8.7056C3.89764 66.1624 0 62.2648 0 57.4569V8.70559Z" fill="white"/>
<path d="M9.7995 27.1454L28.5204 27.1454L28.5204 8.42456L9.7995 8.42456L9.7995 27.1454ZM34.2181 25.835L34.2181 12.7304L36.7454 12.7304L36.7454 25.835L34.2181 25.835ZM43.5123 25.835C42.8508 25.835 42.2704 25.7351 41.7712 25.5354C41.2845 25.3233 40.9038 24.98 40.6292 24.5058C40.3547 24.019 40.2174 23.3576 40.2174 22.5214L40.2174 18.5151L38.6074 18.5151L38.6074 16.3996L40.2174 16.3996L40.4982 13.8349L42.7447 13.8349L42.7447 16.3996L45.2346 16.3996L45.2346 18.5151L42.7447 18.5151L42.7447 22.5588C42.7447 22.9832 42.8383 23.2764 43.0255 23.4387C43.2127 23.6009 43.531 23.6821 43.9803 23.6821L45.2159 23.6821L45.2159 25.835L43.5123 25.835ZM50.3382 12.7304L48.41 17.5229L46.6876 17.5229L47.6986 12.7304L50.3382 12.7304ZM55.0025 26.0596C54.1413 26.0596 53.3925 25.9223 52.756 25.6478C52.1195 25.3732 51.6202 24.9925 51.2583 24.5058C50.8964 24.019 50.6904 23.4699 50.6405 22.8583L53.1491 22.8583C53.2115 23.0955 53.3176 23.3139 53.4674 23.5136C53.6171 23.7008 53.8168 23.8505 54.0664 23.9629C54.316 24.0752 54.6156 24.1314 54.965 24.1314C55.302 24.1314 55.5766 24.0877 55.7887 24.0003C56.0009 23.9005 56.1569 23.7694 56.2568 23.6072C56.3691 23.4449 56.4253 23.2764 56.4253 23.1017C56.4253 22.8396 56.3504 22.6399 56.2006 22.5026C56.0508 22.3529 55.8324 22.2343 55.5454 22.147C55.2583 22.0596 54.9089 21.9722 54.497 21.8849C54.0477 21.7975 53.6046 21.6914 53.1678 21.5666C52.7435 21.4293 52.3628 21.2608 52.0259 21.0611C51.6889 20.8615 51.4205 20.6056 51.2209 20.2936C51.0212 19.9816 50.9213 19.5947 50.9213 19.1329C50.9213 18.5713 51.0711 18.072 51.3706 17.6352C51.6702 17.1859 52.107 16.8302 52.6811 16.5681C53.2552 16.306 53.9479 16.175 54.7591 16.175C55.8948 16.175 56.7934 16.4308 57.4549 16.9426C58.1164 17.4543 58.5095 18.1594 58.6343 19.058L56.2568 19.058C56.1819 18.771 56.0134 18.5463 55.7513 18.3841C55.5017 18.2093 55.1647 18.122 54.7404 18.122C54.2911 18.122 53.9479 18.2031 53.7107 18.3653C53.4736 18.5276 53.355 18.7398 53.355 19.0018C53.355 19.1766 53.4299 19.3326 53.5797 19.4699C53.7419 19.6072 53.9666 19.7257 54.2536 19.8256C54.5407 19.9129 54.8901 20.0003 55.302 20.0877C56.0259 20.2374 56.6624 20.4122 57.2115 20.6118C57.7607 20.7991 58.1913 21.0736 58.5033 21.4356C58.8153 21.785 58.9713 22.2967 58.9713 22.9707C58.9713 23.5697 58.809 24.1064 58.4846 24.5807C58.1601 25.0424 57.6983 25.4044 57.0992 25.6665C56.5126 25.9286 55.8137 26.0596 55.0025 26.0596ZM65.5719 25.835L65.5719 12.7304L68.0992 12.7304L68.0992 23.8693L73.8465 23.8693L73.8465 25.835L65.5719 25.835ZM76.0109 25.835L76.0109 16.3996L78.5382 16.3996L78.5382 25.835L76.0109 25.835ZM77.284 15.1079C76.8346 15.1079 76.4602 14.9769 76.1607 14.7148C75.8736 14.4402 75.7301 14.097 75.7301 13.6851C75.7301 13.2733 75.8736 12.9363 76.1607 12.6742C76.4602 12.3996 76.8346 12.2623 77.284 12.2623C77.7457 12.2623 78.1201 12.3996 78.4072 12.6742C78.7067 12.9363 78.8565 13.2733 78.8565 13.6851C78.8565 14.097 78.7067 14.4402 78.4072 14.7148C78.1201 14.9769 77.7457 15.1079 77.284 15.1079ZM87.2699 25.835L83.2449 20.668L86.8581 16.3996L89.8347 16.3996L85.1732 21.7351L85.1732 19.732L90.415 25.835L87.2699 25.835ZM81.092 25.835L81.092 12.3559L83.6194 12.3559L83.6194 25.835L81.092 25.835ZM95.6594 26.0596C94.7108 26.0596 93.8684 25.8599 93.132 25.4605C92.4082 25.0487 91.8403 24.4808 91.4284 23.7569C91.0291 23.0206 90.8294 22.1719 90.8294 21.2109C90.8294 20.2249 91.0291 19.3575 91.4284 18.6087C91.8403 17.8474 92.4082 17.2546 93.132 16.8302C93.8559 16.3934 94.6983 16.175 95.6594 16.175C96.5954 16.175 97.4129 16.3809 98.1118 16.7928C98.8107 17.2046 99.3536 17.76 99.7405 18.4589C100.127 19.1579 100.321 19.9504 100.321 20.8365C100.321 20.9613 100.321 21.1048 100.321 21.2671C100.321 21.4168 100.308 21.5728 100.283 21.7351L92.6266 21.7351L92.6266 20.2L97.7748 20.2C97.7374 19.5884 97.519 19.1079 97.1196 18.7585C96.7327 18.409 96.2459 18.2343 95.6594 18.2343C95.235 18.2343 94.8419 18.3341 94.4799 18.5338C94.118 18.721 93.8309 19.0143 93.6188 19.4137C93.4191 19.8131 93.3192 20.3185 93.3192 20.9301L93.3192 21.473C93.3192 21.9847 93.4128 22.434 93.6001 22.8209C93.7997 23.1953 94.0743 23.4886 94.4238 23.7008C94.7732 23.9005 95.1788 24.0003 95.6406 24.0003C96.1024 24.0003 96.4831 23.9005 96.7826 23.7008C97.0946 23.5011 97.3255 23.2452 97.4753 22.9332L100.059 22.9332C99.884 23.5198 99.5907 24.0502 99.1789 24.5245C98.767 24.9988 98.2615 25.3732 97.6625 25.6478C97.0634 25.9223 96.3957 26.0596 95.6594 26.0596ZM115.109 25.835L115.109 12.7304L117.636 12.7304L117.636 25.835L115.109 25.835ZM106.853 25.835L106.853 12.7304L109.38 12.7304L109.38 25.835L106.853 25.835ZM109.024 20.1625L109.024 18.122L115.539 18.122L115.539 20.1625L109.024 20.1625ZM120.217 25.835L120.217 16.3996L122.744 16.3996L122.744 25.835L120.217 25.835ZM121.49 15.1079C121.041 15.1079 120.666 14.9769 120.367 14.7148C120.08 14.4402 119.936 14.097 119.936 13.6851C119.936 13.2733 120.08 12.9363 120.367 12.6742C120.666 12.3996 121.041 12.2623 121.49 12.2623C121.952 12.2623 122.326 12.3996 122.613 12.6742C122.913 12.9363 123.063 13.2733 123.063 13.6851C123.063 14.097 122.913 14.4402 122.613 14.7148C122.326 14.9769 121.952 15.1079 121.49 15.1079ZM125.298 25.835L125.298 16.3996L127.545 16.3996L127.788 18.1407C128.013 17.7288 128.293 17.3794 128.63 17.0923C128.98 16.8053 129.373 16.5806 129.81 16.4184C130.259 16.2561 130.752 16.175 131.289 16.175L131.289 18.8521L130.428 18.8521C130.053 18.8521 129.704 18.8958 129.379 18.9831C129.067 19.0705 128.793 19.214 128.556 19.4137C128.318 19.6009 128.137 19.863 128.013 20.2C127.888 20.537 127.825 20.9613 127.825 21.473L127.825 25.835L125.298 25.835ZM133.014 25.835L133.014 16.3996L135.542 16.3996L135.542 25.835L133.014 25.835ZM134.287 15.1079C133.838 15.1079 133.464 14.9769 133.164 14.7148C132.877 14.4402 132.734 14.097 132.734 13.6851C132.734 13.2733 132.877 12.9363 133.164 12.6742C133.464 12.3996 133.838 12.2623 134.287 12.2623C134.749 12.2623 135.124 12.3996 135.411 12.6742C135.71 12.9363 135.86 13.2733 135.86 13.6851C135.86 14.097 135.71 14.4402 135.411 14.7148C135.124 14.9769 134.749 15.1079 134.287 15.1079ZM138.096 25.835L138.096 16.3996L140.323 16.3996L140.511 17.9348C140.798 17.4106 141.203 16.9862 141.727 16.6617C142.264 16.3372 142.901 16.175 143.637 16.175C144.423 16.175 145.085 16.3372 145.621 16.6617C146.158 16.9862 146.564 17.4605 146.838 18.0845C147.125 18.7086 147.269 19.4761 147.269 20.3872L147.269 25.835L144.76 25.835L144.76 20.6306C144.76 19.8817 144.598 19.3076 144.273 18.9082C143.961 18.5089 143.475 18.3092 142.813 18.3092C142.389 18.3092 142.008 18.409 141.671 18.6087C141.347 18.8084 141.091 19.0955 140.904 19.4699C140.717 19.8318 140.623 20.2749 140.623 20.799L140.623 25.835L138.096 25.835ZM153.712 30.1782C152.814 30.1782 152.027 30.0659 151.353 29.8412C150.68 29.6291 150.155 29.2983 149.781 28.849C149.419 28.4122 149.238 27.8693 149.238 27.2203C149.238 26.7835 149.35 26.3716 149.575 25.9847C149.8 25.5978 150.124 25.2484 150.548 24.9364C150.985 24.6119 151.528 24.3373 152.177 24.1126L153.132 25.3482C152.558 25.5354 152.14 25.7663 151.878 26.0409C151.628 26.3279 151.503 26.6337 151.503 26.9582C151.503 27.2453 151.597 27.4886 151.784 27.6883C151.984 27.888 152.246 28.0315 152.57 28.1189C152.907 28.2188 153.282 28.2687 153.694 28.2687C154.093 28.2687 154.436 28.2188 154.723 28.1189C155.023 28.0191 155.254 27.8693 155.416 27.6696C155.591 27.4824 155.678 27.2577 155.678 26.9957C155.678 26.6587 155.559 26.3841 155.322 26.1719C155.085 25.9598 154.611 25.8287 153.9 25.7788C153.263 25.7289 152.695 25.6602 152.196 25.5729C151.709 25.473 151.279 25.3607 150.904 25.2359C150.53 25.0986 150.211 24.9488 149.949 24.7866C149.7 24.6243 149.494 24.4621 149.332 24.2999L149.332 23.8693L151.335 21.7164L153.151 22.2967L150.792 24.6181L151.503 23.3825C151.641 23.4574 151.772 23.5323 151.896 23.6072C152.034 23.6696 152.202 23.732 152.402 23.7944C152.602 23.8443 152.864 23.8942 153.188 23.9442C153.513 23.9941 153.924 24.0378 154.424 24.0752C155.247 24.1501 155.921 24.3061 156.446 24.5432C156.982 24.7804 157.375 25.0986 157.625 25.498C157.875 25.8849 157.999 26.3654 157.999 26.9395C157.999 27.5011 157.843 28.0253 157.531 28.512C157.232 29.0113 156.764 29.4106 156.127 29.7102C155.491 30.0222 154.686 30.1782 153.712 30.1782ZM153.712 23.0456C152.926 23.0456 152.246 22.8958 151.672 22.5963C151.11 22.2842 150.673 21.8724 150.361 21.3607C150.062 20.8365 149.912 20.2561 149.912 19.6196C149.912 18.9831 150.062 18.409 150.361 17.8973C150.673 17.3731 151.11 16.955 151.672 16.643C152.246 16.331 152.926 16.175 153.712 16.175C154.511 16.175 155.191 16.331 155.753 16.643C156.327 16.955 156.764 17.3731 157.063 17.8973C157.363 18.409 157.513 18.9831 157.513 19.6196C157.513 20.2561 157.363 20.8365 157.063 21.3607C156.764 21.8724 156.327 22.2842 155.753 22.5963C155.191 22.8958 154.511 23.0456 153.712 23.0456ZM153.712 21.1173C154.199 21.1173 154.592 20.9925 154.892 20.7429C155.191 20.4933 155.341 20.1251 155.341 19.6384C155.341 19.1516 155.191 18.7834 154.892 18.5338C154.592 18.2717 154.199 18.1407 153.712 18.1407C153.238 18.1407 152.845 18.2717 152.533 18.5338C152.233 18.7834 152.084 19.1516 152.084 19.6384C152.084 20.1251 152.233 20.4933 152.533 20.7429C152.845 20.9925 153.238 21.1173 153.712 21.1173ZM155.285 18.1969L154.873 16.3996L158.748 16.3996L158.748 17.8973L155.285 18.1969ZM164.384 25.835L169.177 12.7304L172.041 12.7304L176.815 25.835L174.138 25.835L170.6 15.6134L167.043 25.835L164.384 25.835ZM166.5 22.8583L167.174 20.8927L173.838 20.8927L174.493 22.8583L166.5 22.8583ZM182.943 25.835L182.943 12.7304L191.48 12.7304L191.48 14.7709L185.47 14.7709L185.47 18.2717L190.281 18.2717L190.281 20.2561L185.47 20.2561L185.47 25.835L182.943 25.835ZM196.809 26.0596C196.047 26.0596 195.392 25.9036 194.843 25.5916C194.306 25.2671 193.895 24.7991 193.607 24.1875C193.32 23.5635 193.177 22.7959 193.177 21.8849L193.177 16.3996L195.704 16.3996L195.704 21.6228C195.704 22.3841 195.86 22.9582 196.172 23.3451C196.497 23.732 196.99 23.9254 197.651 23.9254C198.076 23.9254 198.45 23.8318 198.774 23.6446C199.099 23.4449 199.355 23.1641 199.542 22.8022C199.742 22.4278 199.842 21.9722 199.842 21.4356L199.842 16.3996L202.35 16.3996L202.35 25.835L200.141 25.835L199.935 24.2999C199.661 24.8365 199.255 25.2671 198.718 25.5916C198.182 25.9036 197.545 26.0596 196.809 26.0596ZM204.825 25.835L204.825 12.3559L207.353 12.3559L207.353 25.835L204.825 25.835ZM209.816 25.835L209.816 12.3559L212.344 12.3559L212.344 25.835L209.816 25.835ZM223.781 26.0596C222.833 26.0596 221.984 25.8974 221.235 25.5729C220.499 25.2484 219.912 24.7741 219.475 24.1501C219.051 23.5261 218.833 22.771 218.82 21.8849L221.497 21.8849C221.51 22.2718 221.609 22.6212 221.797 22.9332C221.984 23.2452 222.24 23.4949 222.564 23.6821C222.901 23.8568 223.301 23.9442 223.762 23.9442C224.162 23.9442 224.505 23.8818 224.792 23.7569C225.092 23.6197 225.322 23.4325 225.485 23.1953C225.647 22.9582 225.728 22.6774 225.728 22.3529C225.728 21.9785 225.634 21.6664 225.447 21.4168C225.273 21.1672 225.023 20.9551 224.698 20.7803C224.386 20.6056 224.018 20.4496 223.594 20.3123C223.182 20.1625 222.745 20.0065 222.283 19.8443C221.248 19.5073 220.455 19.058 219.906 18.4964C219.369 17.9348 219.101 17.1922 219.101 16.2686C219.101 15.4823 219.288 14.8084 219.663 14.2467C220.049 13.6851 220.58 13.2545 221.254 12.955C221.928 12.6555 222.695 12.5057 223.556 12.5057C224.443 12.5057 225.216 12.6617 225.878 12.9737C226.552 13.2733 227.082 13.7101 227.469 14.2842C227.868 14.8583 228.074 15.5322 228.087 16.306L225.391 16.306C225.379 16.019 225.291 15.7507 225.129 15.501C224.979 15.239 224.767 15.033 224.492 14.8833C224.218 14.721 223.893 14.6399 223.519 14.6399C223.195 14.6274 222.895 14.6773 222.62 14.7897C222.358 14.902 222.146 15.0705 221.984 15.2951C221.834 15.5073 221.759 15.7756 221.759 16.1001C221.759 16.4121 221.834 16.6742 221.984 16.8864C222.146 17.0986 222.365 17.2858 222.639 17.448C222.914 17.5978 223.238 17.7413 223.613 17.8786C223.987 18.0034 224.393 18.1344 224.829 18.2717C225.478 18.4964 226.078 18.7647 226.627 19.0767C227.176 19.3763 227.613 19.7694 227.937 20.2561C228.262 20.7429 228.424 21.3856 228.424 22.1844C228.424 22.8708 228.243 23.5073 227.881 24.0939C227.519 24.6805 226.995 25.1548 226.308 25.5167C225.634 25.8786 224.792 26.0596 223.781 26.0596ZM233.694 26.0596C232.908 26.0596 232.259 25.9348 231.747 25.6852C231.235 25.4231 230.855 25.0799 230.605 24.6555C230.368 24.2187 230.249 23.7382 230.249 23.214C230.249 22.6399 230.393 22.1345 230.68 21.6977C230.98 21.2608 231.423 20.9176 232.009 20.668C232.608 20.4184 233.357 20.2936 234.256 20.2936L236.596 20.2936C236.596 19.8318 236.533 19.4511 236.409 19.1516C236.284 18.8396 236.09 18.6087 235.828 18.4589C235.566 18.3092 235.217 18.2343 234.78 18.2343C234.306 18.2343 233.9 18.3404 233.563 18.5525C233.239 18.7522 233.039 19.0643 232.964 19.4886L230.512 19.4886C230.574 18.8146 230.792 18.2343 231.167 17.7476C231.554 17.2483 232.059 16.8614 232.683 16.5869C233.32 16.3123 234.025 16.175 234.799 16.175C235.685 16.175 236.452 16.3248 237.101 16.6243C237.75 16.9238 238.249 17.3544 238.599 17.916C238.948 18.4777 239.123 19.1703 239.123 19.9941L239.123 25.835L236.989 25.835L236.708 24.3935C236.571 24.6431 236.409 24.8677 236.221 25.0674C236.034 25.2671 235.816 25.4418 235.566 25.5916C235.317 25.7414 235.036 25.8537 234.724 25.9286C234.412 26.0159 234.068 26.0596 233.694 26.0596ZM234.293 24.1126C234.618 24.1126 234.905 24.0565 235.154 23.9442C235.416 23.8193 235.641 23.6571 235.828 23.4574C236.015 23.2452 236.159 23.0081 236.259 22.746C236.371 22.4714 236.446 22.1782 236.483 21.8661V21.8474L234.555 21.8474C234.168 21.8474 233.85 21.8973 233.6 21.9972C233.363 22.0845 233.189 22.2156 233.076 22.3903C232.964 22.5651 232.908 22.7647 232.908 22.9894C232.908 23.239 232.964 23.4449 233.076 23.6072C233.189 23.7694 233.351 23.8942 233.563 23.9816C233.775 24.069 234.019 24.1126 234.293 24.1126ZM241.481 25.835L241.481 12.3559L244.008 12.3559L244.008 25.835L241.481 25.835ZM251.002 26.0596C250.054 26.0596 249.211 25.8599 248.475 25.4605C247.751 25.0487 247.183 24.4808 246.771 23.7569C246.372 23.0206 246.172 22.1719 246.172 21.2109C246.172 20.2249 246.372 19.3575 246.771 18.6087C247.183 17.8474 247.751 17.2546 248.475 16.8302C249.199 16.3934 250.041 16.175 251.002 16.175C251.938 16.175 252.756 16.3809 253.455 16.7928C254.154 17.2046 254.696 17.76 255.083 18.4589C255.47 19.1579 255.664 19.9504 255.664 20.8365C255.664 20.9613 255.664 21.1048 255.664 21.2671C255.664 21.4168 255.651 21.5728 255.626 21.7351L247.969 21.7351L247.969 20.2L253.118 20.2C253.08 19.5884 252.862 19.1079 252.462 18.7585C252.076 18.409 251.589 18.2343 251.002 18.2343C250.578 18.2343 250.185 18.3341 249.823 18.5338C249.461 18.721 249.174 19.0143 248.962 19.4137C248.762 19.8131 248.662 20.3185 248.662 20.9301L248.662 21.473C248.662 21.9847 248.756 22.434 248.943 22.8209C249.143 23.1953 249.417 23.4886 249.767 23.7008C250.116 23.9005 250.522 24.0003 250.984 24.0003C251.445 24.0003 251.826 23.9005 252.125 23.7008C252.438 23.5011 252.668 23.2452 252.818 22.9332L255.402 22.9332C255.227 23.5198 254.934 24.0502 254.522 24.5245C254.11 24.9988 253.604 25.3732 253.005 25.6478C252.406 25.9223 251.739 26.0596 251.002 26.0596ZM261.59 26.0596C260.729 26.0596 259.98 25.9223 259.344 25.6478C258.707 25.3732 258.208 24.9925 257.846 24.5058C257.484 24.019 257.278 23.4699 257.228 22.8583L259.737 22.8583C259.799 23.0955 259.905 23.3139 260.055 23.5136C260.205 23.7008 260.404 23.8505 260.654 23.9629C260.904 24.0752 261.203 24.1314 261.553 24.1314C261.89 24.1314 262.164 24.0877 262.376 24.0003C262.589 23.9005 262.745 23.7694 262.844 23.6072C262.957 23.4449 263.013 23.2764 263.013 23.1017C263.013 22.8396 262.938 22.6399 262.788 22.5026C262.638 22.3529 262.42 22.2343 262.133 22.147C261.846 22.0596 261.496 21.9722 261.085 21.8849C260.635 21.7975 260.192 21.6914 259.755 21.5666C259.331 21.4293 258.95 21.2608 258.613 21.0611C258.276 20.8615 258.008 20.6056 257.808 20.2936C257.609 19.9816 257.509 19.5947 257.509 19.1329C257.509 18.5713 257.659 18.072 257.958 17.6352C258.258 17.1859 258.695 16.8302 259.269 16.5681C259.843 16.306 260.535 16.175 261.347 16.175C262.482 16.175 263.381 16.4308 264.042 16.9426C264.704 17.4543 265.097 18.1594 265.222 19.058L262.844 19.058C262.769 18.771 262.601 18.5463 262.339 18.3841C262.089 18.2093 261.752 18.122 261.328 18.122C260.879 18.122 260.535 18.2031 260.298 18.3653C260.061 18.5276 259.943 18.7398 259.943 19.0018C259.943 19.1766 260.018 19.3326 260.167 19.4699C260.33 19.6072 260.554 19.7257 260.841 19.8256C261.128 19.9129 261.478 20.0003 261.89 20.0877C262.613 20.2374 263.25 20.4122 263.799 20.6118C264.348 20.7991 264.779 21.0736 265.091 21.4356C265.403 21.785 265.559 22.2967 265.559 22.9707C265.559 23.5697 265.397 24.1064 265.072 24.5807C264.748 25.0424 264.286 25.4044 263.687 25.6665C263.1 25.9286 262.401 26.0596 261.59 26.0596ZM275.211 25.835L275.211 14.7709L271.373 14.7709L271.373 12.7304L281.539 12.7304L281.539 14.7709L277.72 14.7709L277.72 25.835L275.211 25.835ZM286.122 26.0596C285.174 26.0596 284.331 25.8599 283.595 25.4605C282.871 25.0487 282.303 24.4808 281.891 23.7569C281.492 23.0206 281.292 22.1719 281.292 21.2109C281.292 20.2249 281.492 19.3575 281.891 18.6087C282.303 17.8474 282.871 17.2546 283.595 16.8302C284.319 16.3934 285.161 16.175 286.122 16.175C287.058 16.175 287.876 16.3809 288.575 16.7928C289.273 17.2046 289.816 17.76 290.203 18.4589C290.59 19.1579 290.784 19.9504 290.784 20.8365C290.784 20.9613 290.784 21.1048 290.784 21.2671C290.784 21.4168 290.771 21.5728 290.746 21.7351L283.089 21.7351L283.089 20.2L288.238 20.2C288.2 19.5884 287.982 19.1079 287.582 18.7585C287.195 18.409 286.709 18.2343 286.122 18.2343C285.698 18.2343 285.305 18.3341 284.943 18.5338C284.581 18.721 284.294 19.0143 284.082 19.4137C283.882 19.8131 283.782 20.3185 283.782 20.9301L283.782 21.473C283.782 21.9847 283.876 22.434 284.063 22.8209C284.263 23.1953 284.537 23.4886 284.887 23.7008C285.236 23.9005 285.642 24.0003 286.103 24.0003C286.565 24.0003 286.946 23.9005 287.245 23.7008C287.557 23.5011 287.788 23.2452 287.938 22.9332L290.522 22.9332C290.347 23.5198 290.054 24.0502 289.642 24.5245C289.23 24.9988 288.724 25.3732 288.125 25.6478C287.526 25.9223 286.858 26.0596 286.122 26.0596ZM296.036 26.0596C295.25 26.0596 294.601 25.9348 294.089 25.6852C293.577 25.4231 293.197 25.0799 292.947 24.6555C292.71 24.2187 292.591 23.7382 292.591 23.214C292.591 22.6399 292.735 22.1345 293.022 21.6977C293.321 21.2608 293.765 20.9176 294.351 20.668C294.95 20.4184 295.699 20.2936 296.598 20.2936L298.938 20.2936C298.938 19.8318 298.875 19.4511 298.751 19.1516C298.626 18.8396 298.432 18.6087 298.17 18.4589C297.908 18.3092 297.559 18.2343 297.122 18.2343C296.648 18.2343 296.242 18.3404 295.905 18.5525C295.58 18.7522 295.381 19.0643 295.306 19.4886L292.853 19.4886C292.916 18.8146 293.134 18.2343 293.509 17.7476C293.896 17.2483 294.401 16.8614 295.025 16.5869C295.662 16.3123 296.367 16.175 297.141 16.175C298.027 16.175 298.794 16.3248 299.443 16.6243C300.092 16.9238 300.591 17.3544 300.941 17.916C301.29 18.4777 301.465 19.1703 301.465 19.9941L301.465 25.835L299.331 25.835L299.05 24.3935C298.913 24.6431 298.751 24.8677 298.563 25.0674C298.376 25.2671 298.158 25.4418 297.908 25.5916C297.658 25.7414 297.378 25.8537 297.066 25.9286C296.754 26.0159 296.41 26.0596 296.036 26.0596ZM296.635 24.1126C296.96 24.1126 297.247 24.0565 297.496 23.9442C297.758 23.8193 297.983 23.6571 298.17 23.4574C298.357 23.2452 298.501 23.0081 298.601 22.746C298.713 22.4714 298.788 22.1782 298.825 21.8661V21.8474L296.897 21.8474C296.51 21.8474 296.192 21.8973 295.942 21.9972C295.705 22.0845 295.531 22.2156 295.418 22.3903C295.306 22.5651 295.25 22.7647 295.25 22.9894C295.25 23.239 295.306 23.4449 295.418 23.6072C295.531 23.7694 295.693 23.8942 295.905 23.9816C296.117 24.069 296.361 24.1126 296.635 24.1126ZM303.823 25.835L303.823 16.3996L306.05 16.3996L306.256 17.6539C306.556 17.2046 306.949 16.8489 307.436 16.5869C307.935 16.3123 308.503 16.175 309.139 16.175C309.614 16.175 310.038 16.2374 310.412 16.3622C310.787 16.487 311.118 16.668 311.405 16.9051C311.704 17.1422 311.948 17.4418 312.135 17.8037C312.484 17.292 312.94 16.8926 313.501 16.6056C314.063 16.3185 314.675 16.175 315.336 16.175C316.16 16.175 316.846 16.3435 317.395 16.6805C317.944 17.005 318.356 17.4792 318.631 18.1032C318.918 18.7273 319.061 19.4948 319.061 20.4059L319.061 25.835L316.553 25.835L316.553 20.6306C316.553 19.8817 316.403 19.3076 316.104 18.9082C315.817 18.5089 315.367 18.3092 314.756 18.3092C314.356 18.3092 314.001 18.409 313.689 18.6087C313.377 18.8084 313.133 19.0955 312.958 19.4699C312.796 19.8443 312.715 20.2936 312.715 20.8178L312.715 25.835L310.188 25.835L310.188 20.6306C310.188 19.8817 310.038 19.3076 309.738 18.9082C309.439 18.5089 308.977 18.3092 308.353 18.3092C307.966 18.3092 307.617 18.409 307.305 18.6087C307.005 18.8084 306.768 19.0955 306.593 19.4699C306.431 19.8443 306.35 20.2936 306.35 20.8178L306.35 25.835L303.823 25.835ZM14.1427 51.835L14.1427 40.7709L10.305 40.7709L10.305 38.7304L20.4704 38.7304L20.4704 40.7709L16.6513 40.7709L16.6513 51.835L14.1427 51.835ZM22.2054 51.835L22.2054 38.3559L24.7327 38.3559L24.7327 43.8037C25.0448 43.3045 25.4566 42.9114 25.9683 42.6243C26.4925 42.3248 27.0978 42.175 27.7842 42.175C28.5705 42.175 29.232 42.3435 29.7687 42.6805C30.3053 43.005 30.7109 43.4792 30.9855 44.1032C31.2601 44.7273 31.3974 45.5011 31.3974 46.4246L31.3974 51.835L28.8888 51.835L28.8888 46.6493C28.8888 45.9004 28.7328 45.3263 28.4208 44.927C28.1087 44.5151 27.6158 44.3092 26.9418 44.3092C26.53 44.3092 26.1555 44.409 25.8186 44.6087C25.4816 44.8084 25.2132 45.1017 25.0136 45.4886C24.8264 45.863 24.7327 46.3123 24.7327 46.8365L24.7327 51.835L22.2054 51.835ZM36.9605 52.0596C36.1743 52.0596 35.5253 51.9348 35.0136 51.6852C34.5019 51.4231 34.1212 51.0799 33.8716 50.6555C33.6345 50.2187 33.5159 49.7382 33.5159 49.214C33.5159 48.6399 33.6594 48.1345 33.9465 47.6977C34.246 47.2608 34.6891 46.9176 35.2757 46.668C35.8747 46.4184 36.6236 46.2936 37.5222 46.2936L39.8623 46.2936C39.8623 45.8318 39.7999 45.4511 39.6751 45.1516C39.5503 44.8396 39.3568 44.6087 39.0947 44.4589C38.8326 44.3092 38.4832 44.2343 38.0463 44.2343C37.5721 44.2343 37.1665 44.3404 36.8295 44.5525C36.505 44.7522 36.3053 45.0643 36.2304 45.4886L33.778 45.4886C33.8404 44.8146 34.0588 44.2343 34.4332 43.7476C34.8201 43.2483 35.3256 42.8614 35.9496 42.5869C36.5861 42.3123 37.2913 42.175 38.0651 42.175C38.9512 42.175 39.7187 42.3248 40.3677 42.6243C41.0167 42.9238 41.5159 43.3544 41.8654 43.916C42.2149 44.4777 42.3896 45.1703 42.3896 45.9941L42.3896 51.835L40.2554 51.835L39.9746 50.3935C39.8373 50.6431 39.6751 50.8677 39.4879 51.0674C39.3006 51.2671 39.0822 51.4418 38.8326 51.5916C38.583 51.7414 38.3022 51.8537 37.9902 51.9286C37.6782 52.0159 37.335 52.0596 36.9605 52.0596ZM37.5596 50.1126C37.8841 50.1126 38.1712 50.0565 38.4208 49.9442C38.6829 49.8193 38.9075 49.6571 39.0947 49.4574C39.2819 49.2452 39.4255 49.0081 39.5253 48.746C39.6376 48.4714 39.7125 48.1782 39.7499 47.8661L39.7499 47.8474L37.8217 47.8474C37.4348 47.8474 37.1165 47.8973 36.8669 47.9972C36.6298 48.0845 36.4551 48.2156 36.3427 48.3903C36.2304 48.5651 36.1743 48.7647 36.1743 48.9894C36.1743 49.239 36.2304 49.4449 36.3427 49.6072C36.4551 49.7694 36.6173 49.8942 36.8295 49.9816C37.0417 50.069 37.285 50.1126 37.5596 50.1126ZM48.8872 51.835C48.2257 51.835 47.6454 51.7351 47.1461 51.5354C46.6594 51.3233 46.2787 50.98 46.0042 50.5058C45.7296 50.019 45.5923 49.3576 45.5923 48.5214L45.5923 44.5151L43.9823 44.5151L43.9823 42.3996L45.5923 42.3996L45.8731 39.8349L48.1196 39.8349L48.1196 42.3996L50.6095 42.3996L50.6095 44.5151L48.1196 44.5151L48.1196 48.5588C48.1196 48.9832 48.2132 49.2764 48.4004 49.4387C48.5877 49.6009 48.9059 49.6821 49.3552 49.6821L50.5908 49.6821L50.5908 51.835L48.8872 51.835ZM57.1987 51.835L57.1987 38.7304L59.726 38.7304L65.7541 47.7725L65.7541 38.7304L68.2814 38.7304L68.2814 51.835L65.7541 51.835L59.726 42.8115L59.726 51.835L57.1987 51.835ZM75.3114 52.0596C74.3629 52.0596 73.5204 51.8599 72.7841 51.4605C72.0602 51.0487 71.4923 50.4808 71.0805 49.7569C70.6811 49.0206 70.4814 48.1719 70.4814 47.2109C70.4814 46.2249 70.6811 45.3575 71.0805 44.6087C71.4923 43.8474 72.0602 43.2546 72.7841 42.8302C73.5079 42.3934 74.3504 42.175 75.3114 42.175C76.2474 42.175 77.0649 42.3809 77.7638 42.7928C78.4627 43.2046 79.0056 43.76 79.3925 44.4589C79.7794 45.1579 79.9729 45.9504 79.9729 46.8365C79.9729 46.9613 79.9729 47.1048 79.9729 47.2671C79.9729 47.4168 79.9604 47.5728 79.9354 47.7351L72.2786 47.7351L72.2786 46.2L77.4268 46.2C77.3894 45.5884 77.171 45.1079 76.7716 44.7585C76.3847 44.409 75.898 44.2343 75.3114 44.2343C74.887 44.2343 74.4939 44.3341 74.132 44.5338C73.77 44.721 73.483 45.0143 73.2708 45.4137C73.0711 45.8131 72.9713 46.3185 72.9713 46.9301L72.9713 47.473C72.9713 47.9847 73.0649 48.434 73.2521 48.8209C73.4518 49.1953 73.7264 49.4886 74.0758 49.7008C74.4253 49.9005 74.8309 50.0003 75.2927 50.0003C75.7544 50.0003 76.1351 49.9005 76.4346 49.7008C76.7467 49.5011 76.9775 49.2452 77.1273 48.9332L79.7108 48.9332C79.5361 49.5198 79.2428 50.0502 78.8309 50.5245C78.419 50.9988 77.9136 51.3732 77.3145 51.6478C76.7154 51.9223 76.0477 52.0596 75.3114 52.0596ZM84.2044 51.835L80.741 42.3996L83.3994 42.3996L85.7395 49.4574L88.0796 42.3996L90.7192 42.3996L87.2746 51.835L84.2044 51.835ZM96.3541 52.0596C95.4055 52.0596 94.5631 51.8599 93.8268 51.4605C93.1029 51.0487 92.535 50.4808 92.1232 49.7569C91.7238 49.0206 91.5241 48.1719 91.5241 47.2109C91.5241 46.2249 91.7238 45.3575 92.1232 44.6087C92.535 43.8474 93.1029 43.2546 93.8268 42.8302C94.5506 42.3934 95.3931 42.175 96.3541 42.175C97.2901 42.175 98.1076 42.3809 98.8065 42.7928C99.5054 43.2046 100.048 43.76 100.435 44.4589C100.822 45.1579 101.016 45.9504 101.016 46.8365C101.016 46.9613 101.016 47.1048 101.016 47.2671C101.016 47.4168 101.003 47.5728 100.978 47.7351L93.3213 47.7351L93.3213 46.2L98.4695 46.2C98.4321 45.5884 98.2137 45.1079 97.8143 44.7585C97.4274 44.409 96.9407 44.2343 96.3541 44.2343C95.9297 44.2343 95.5366 44.3341 95.1747 44.5338C94.8127 44.721 94.5257 45.0143 94.3135 45.4137C94.1138 45.8131 94.014 46.3185 94.014 46.9301L94.014 47.473C94.014 47.9847 94.1076 48.434 94.2948 48.8209C94.4945 49.1953 94.769 49.4886 95.1185 49.7008C95.4679 49.9005 95.8736 50.0003 96.3353 50.0003C96.7971 50.0003 97.1778 49.9005 97.4773 49.7008C97.7893 49.5011 98.0202 49.2452 98.17 48.9332L100.753 48.9332C100.579 49.5198 100.285 50.0502 99.8736 50.5245C99.4617 50.9988 98.9563 51.3732 98.3572 51.6478C97.7581 51.9223 97.0904 52.0596 96.3541 52.0596ZM103.085 51.835L103.085 42.3996L105.332 42.3996L105.575 44.1407C105.8 43.7288 106.081 43.3794 106.418 43.0923C106.767 42.8053 107.16 42.5806 107.597 42.4184C108.046 42.2561 108.539 42.175 109.076 42.175L109.076 44.8521L108.215 44.8521C107.84 44.8521 107.491 44.8958 107.167 44.9831C106.855 45.0705 106.58 45.214 106.343 45.4137C106.106 45.6009 105.925 45.863 105.8 46.2C105.675 46.537 105.613 46.9613 105.613 47.473L105.613 51.835L103.085 51.835ZM119.719 52.0596C118.771 52.0596 117.922 51.8974 117.173 51.5729C116.437 51.2484 115.85 50.7741 115.414 50.1501C114.989 49.5261 114.771 48.771 114.758 47.8849L117.436 47.8849C117.448 48.2718 117.548 48.6212 117.735 48.9332C117.922 49.2452 118.178 49.4949 118.503 49.6821C118.84 49.8568 119.239 49.9442 119.701 49.9442C120.1 49.9442 120.443 49.8818 120.73 49.7569C121.03 49.6197 121.261 49.4325 121.423 49.1953C121.585 48.9582 121.666 48.6774 121.666 48.3529C121.666 47.9785 121.573 47.6664 121.386 47.4168C121.211 47.1672 120.961 46.9551 120.637 46.7803C120.325 46.6056 119.957 46.4496 119.532 46.3123C119.12 46.1625 118.684 46.0065 118.222 45.8443C117.186 45.5073 116.393 45.058 115.844 44.4964C115.308 43.9348 115.039 43.1922 115.039 42.2686C115.039 41.4823 115.226 40.8084 115.601 40.2467C115.988 39.6851 116.518 39.2545 117.192 38.955C117.866 38.6555 118.634 38.5057 119.495 38.5057C120.381 38.5057 121.155 38.6617 121.816 38.9737C122.49 39.2733 123.021 39.7101 123.407 40.2842C123.807 40.8583 124.013 41.5322 124.025 42.306L121.329 42.306C121.317 42.019 121.23 41.7507 121.067 41.501C120.918 41.239 120.705 41.033 120.431 40.8833C120.156 40.721 119.832 40.6399 119.457 40.6399C119.133 40.6274 118.833 40.6773 118.559 40.7897C118.297 40.902 118.084 41.0705 117.922 41.2951C117.772 41.5073 117.698 41.7756 117.698 42.1001C117.698 42.4121 117.772 42.6742 117.922 42.8864C118.084 43.0986 118.303 43.2858 118.577 43.448C118.852 43.5978 119.177 43.7413 119.551 43.8786C119.925 44.0034 120.331 44.1344 120.768 44.2717C121.417 44.4964 122.016 44.7647 122.565 45.0767C123.114 45.3763 123.551 45.7694 123.875 46.2561C124.2 46.7429 124.362 47.3856 124.362 48.1844C124.362 48.8708 124.181 49.5073 123.819 50.0939C123.457 50.6805 122.933 51.1548 122.247 51.5167C121.573 51.8786 120.73 52.0596 119.719 52.0596ZM130.7 51.835C130.038 51.835 129.458 51.7351 128.958 51.5354C128.472 51.3233 128.091 50.98 127.817 50.5058C127.542 50.019 127.405 49.3576 127.405 48.5214L127.405 44.5151L125.795 44.5151L125.795 42.3996L127.405 42.3996L127.685 39.8349L129.932 39.8349L129.932 42.3996L132.422 42.3996L132.422 44.5151L129.932 44.5151L129.932 48.5588C129.932 48.9832 130.026 49.2764 130.213 49.4387C130.4 49.6009 130.718 49.6821 131.168 49.6821L132.403 49.6821L132.403 51.835L130.7 51.835ZM138.767 52.0596C137.868 52.0596 137.057 51.8537 136.333 51.4418C135.622 51.0175 135.054 50.4371 134.629 49.7008C134.218 48.9519 134.012 48.097 134.012 47.136C134.012 46.1501 134.218 45.2889 134.629 44.5525C135.054 43.8037 135.628 43.2234 136.352 42.8115C137.076 42.3872 137.887 42.175 138.785 42.175C139.697 42.175 140.508 42.3872 141.219 42.8115C141.943 43.2234 142.511 43.8037 142.923 44.5525C143.347 45.2889 143.559 46.1438 143.559 47.1173C143.559 48.0908 143.347 48.9519 142.923 49.7008C142.511 50.4371 141.943 51.0175 141.219 51.4418C140.495 51.8537 139.678 52.0596 138.767 52.0596ZM138.767 49.8693C139.191 49.8693 139.566 49.7694 139.89 49.5697C140.227 49.37 140.489 49.0643 140.676 48.6524C140.876 48.2406 140.976 47.7289 140.976 47.1173C140.976 46.5058 140.876 46.0003 140.676 45.6009C140.489 45.1891 140.227 44.8833 139.89 44.6836C139.566 44.4714 139.197 44.3653 138.785 44.3653C138.386 44.3653 138.018 44.4714 137.681 44.6836C137.344 44.8833 137.076 45.1891 136.876 45.6009C136.689 46.0003 136.595 46.5058 136.595 47.1173C136.595 47.7289 136.689 48.2406 136.876 48.6524C137.076 49.0643 137.338 49.37 137.662 49.5697C137.999 49.7694 138.367 49.8693 138.767 49.8693ZM145.737 55.9535L145.737 42.3996L147.984 42.3996L148.265 43.7101C148.465 43.4355 148.702 43.1859 148.976 42.9613C149.251 42.7241 149.575 42.5369 149.95 42.3996C150.337 42.2499 150.786 42.175 151.298 42.175C152.184 42.175 152.964 42.3934 153.638 42.8302C154.312 43.267 154.842 43.8599 155.229 44.6087C155.628 45.3451 155.828 46.1875 155.828 47.136C155.828 48.0845 155.628 48.9332 155.229 49.6821C154.83 50.4184 154.293 50.9988 153.619 51.4231C152.945 51.8474 152.177 52.0596 151.316 52.0596C150.617 52.0596 150.012 51.9348 149.5 51.6852C149.001 51.4231 148.589 51.0674 148.265 50.6181L148.265 55.9535L145.737 55.9535ZM150.717 49.8505C151.216 49.8505 151.653 49.7382 152.028 49.5136C152.415 49.2889 152.714 48.9707 152.926 48.5588C153.138 48.147 153.245 47.6727 153.245 47.136C153.245 46.5994 153.138 46.1251 152.926 45.7132C152.714 45.2889 152.415 44.9644 152.028 44.7398C151.653 44.5026 151.216 44.3841 150.717 44.3841C150.231 44.3841 149.794 44.5026 149.407 44.7398C149.032 44.9644 148.733 45.2827 148.508 45.6945C148.296 46.1064 148.19 46.5806 148.19 47.1173C148.19 47.654 148.296 48.1345 148.508 48.5588C148.733 48.9707 149.032 49.2889 149.407 49.5136C149.794 49.7382 150.231 49.8505 150.717 49.8505ZM161.861 52.0596C161 52.0596 160.251 51.9223 159.615 51.6478C158.978 51.3732 158.479 50.9925 158.117 50.5058C157.755 50.019 157.549 49.4699 157.499 48.8583L160.008 48.8583C160.07 49.0955 160.176 49.3139 160.326 49.5136C160.476 49.7008 160.676 49.8505 160.925 49.9629C161.175 50.0752 161.474 50.1314 161.824 50.1314C162.161 50.1314 162.435 50.0877 162.648 50.0003C162.86 49.9005 163.016 49.7694 163.116 49.6072C163.228 49.4449 163.284 49.2764 163.284 49.1017C163.284 48.8396 163.209 48.6399 163.059 48.5026C162.91 48.3529 162.691 48.2343 162.404 48.147C162.117 48.0596 161.768 47.9722 161.356 47.8849C160.907 47.7975 160.463 47.6914 160.027 47.5666C159.602 47.4293 159.222 47.2608 158.885 47.0611C158.548 46.8615 158.279 46.6056 158.08 46.2936C157.88 45.9816 157.78 45.5947 157.78 45.1329C157.78 44.5713 157.93 44.072 158.229 43.6352C158.529 43.1859 158.966 42.8302 159.54 42.5681C160.114 42.306 160.807 42.175 161.618 42.175C162.754 42.175 163.652 42.4308 164.314 42.9426C164.975 43.4543 165.368 44.1594 165.493 45.058L163.116 45.058C163.041 44.771 162.872 44.5463 162.61 44.3841C162.36 44.2093 162.024 44.122 161.599 44.122C161.15 44.122 160.807 44.2031 160.57 44.3653C160.332 44.5276 160.214 44.7398 160.214 45.0018C160.214 45.1766 160.289 45.3326 160.438 45.4699C160.601 45.6072 160.825 45.7257 161.112 45.8256C161.399 45.9129 161.749 46.0003 162.161 46.0877C162.885 46.2374 163.521 46.4122 164.07 46.6118C164.619 46.7991 165.05 47.0736 165.362 47.4356C165.674 47.785 165.83 48.2967 165.83 48.9707C165.83 49.5697 165.668 50.1064 165.343 50.5807C165.019 51.0424 164.557 51.4044 163.958 51.6665C163.371 51.9286 162.673 52.0596 161.861 52.0596ZM175.07 51.835L171.626 38.7304L174.321 38.7304L176.605 48.9707L179.301 38.7304L182.091 38.7304L184.712 48.9707L187.014 38.7304L189.729 38.7304L186.19 51.835L183.176 51.835L180.668 42.2873L178.066 51.835L175.07 51.835ZM194.874 52.0596C193.976 52.0596 193.165 51.8537 192.441 51.4418C191.729 51.0175 191.162 50.4371 190.737 49.7008C190.325 48.9519 190.119 48.097 190.119 47.136C190.119 46.1501 190.325 45.2889 190.737 44.5525C191.162 43.8037 191.736 43.2234 192.459 42.8115C193.183 42.3872 193.995 42.175 194.893 42.175C195.804 42.175 196.616 42.3872 197.327 42.8115C198.051 43.2234 198.619 43.8037 199.031 44.5525C199.455 45.2889 199.667 46.1438 199.667 47.1173C199.667 48.0908 199.455 48.9519 199.031 49.7008C198.619 50.4371 198.051 51.0175 197.327 51.4418C196.603 51.8537 195.786 52.0596 194.874 52.0596ZM194.874 49.8693C195.299 49.8693 195.673 49.7694 195.998 49.5697C196.335 49.37 196.597 49.0643 196.784 48.6524C196.984 48.2406 197.084 47.7289 197.084 47.1173C197.084 46.5058 196.984 46.0003 196.784 45.6009C196.597 45.1891 196.335 44.8833 195.998 44.6836C195.673 44.4714 195.305 44.3653 194.893 44.3653C194.494 44.3653 194.126 44.4714 193.789 44.6836C193.452 44.8833 193.183 45.1891 192.984 45.6009C192.796 46.0003 192.703 46.5058 192.703 47.1173C192.703 47.7289 192.796 48.2406 192.984 48.6524C193.183 49.0643 193.445 49.37 193.77 49.5697C194.107 49.7694 194.475 49.8693 194.874 49.8693ZM201.845 51.835L201.845 42.3996L204.092 42.3996L204.335 44.1407C204.56 43.7288 204.841 43.3794 205.178 43.0923C205.527 42.8053 205.92 42.5806 206.357 42.4184C206.806 42.2561 207.299 42.175 207.836 42.175L207.836 44.8521L206.975 44.8521C206.6 44.8521 206.251 44.8958 205.926 44.9831C205.614 45.0705 205.34 45.214 205.103 45.4137C204.866 45.6009 204.685 45.863 204.56 46.2C204.435 46.537 204.373 46.9613 204.373 47.473L204.373 51.835L201.845 51.835ZM215.683 51.835L211.658 46.668L215.271 42.3996L218.248 42.3996L213.587 47.7351L213.587 45.732L218.828 51.835L215.683 51.835ZM209.505 51.835L209.505 38.3559L212.033 38.3559L212.033 51.835L209.505 51.835ZM220.385 51.835L220.385 42.3996L222.912 42.3996L222.912 51.835L220.385 51.835ZM221.658 41.1079C221.208 41.1079 220.834 40.9769 220.534 40.7148C220.247 40.4402 220.104 40.097 220.104 39.6851C220.104 39.2733 220.247 38.9363 220.534 38.6742C220.834 38.3996 221.208 38.2623 221.658 38.2623C222.119 38.2623 222.494 38.3996 222.781 38.6742C223.08 38.9363 223.23 39.2733 223.23 39.6851C223.23 40.097 223.08 40.4402 222.781 40.7148C222.494 40.9769 222.119 41.1079 221.658 41.1079ZM225.466 51.835L225.466 42.3996L227.693 42.3996L227.881 43.9348C228.168 43.4106 228.573 42.9862 229.098 42.6617C229.634 42.3372 230.271 42.175 231.007 42.175C231.793 42.175 232.455 42.3372 232.991 42.6617C233.528 42.9862 233.934 43.4605 234.208 44.0845C234.495 44.7086 234.639 45.4761 234.639 46.3872L234.639 51.835L232.13 51.835L232.13 46.6306C232.13 45.8817 231.968 45.3076 231.644 44.9082C231.332 44.5089 230.845 44.3092 230.183 44.3092C229.759 44.3092 229.378 44.409 229.041 44.6087C228.717 44.8084 228.461 45.0955 228.274 45.4699C228.087 45.8318 227.993 46.2749 227.993 46.799L227.993 51.835L225.466 51.835ZM241.082 56.1782C240.184 56.1782 239.398 56.0659 238.724 55.8412C238.05 55.6291 237.525 55.2983 237.151 54.849C236.789 54.4122 236.608 53.8693 236.608 53.2203C236.608 52.7835 236.72 52.3716 236.945 51.9847C237.17 51.5978 237.494 51.2484 237.919 50.9364C238.355 50.6119 238.898 50.3373 239.547 50.1126L240.502 51.3482C239.928 51.5354 239.51 51.7663 239.248 52.0409C238.998 52.3279 238.873 52.6337 238.873 52.9582C238.873 53.2453 238.967 53.4886 239.154 53.6883C239.354 53.888 239.616 54.0315 239.94 54.1189C240.277 54.2188 240.652 54.2687 241.064 54.2687C241.463 54.2687 241.806 54.2188 242.093 54.1189C242.393 54.0191 242.624 53.8693 242.786 53.6696C242.961 53.4824 243.048 53.2577 243.048 52.9957C243.048 52.6587 242.93 52.3841 242.692 52.1719C242.455 51.9598 241.981 51.8287 241.27 51.7788C240.633 51.7289 240.065 51.6602 239.566 51.5729C239.079 51.473 238.649 51.3607 238.274 51.2359C237.9 51.0986 237.582 50.9488 237.319 50.7866C237.07 50.6243 236.864 50.4621 236.702 50.2999L236.702 49.8693L238.705 47.7164L240.521 48.2967L238.162 50.6181L238.873 49.3825C239.011 49.4574 239.142 49.5323 239.266 49.6072C239.404 49.6696 239.572 49.732 239.772 49.7944C239.972 49.8443 240.234 49.8942 240.558 49.9442C240.883 49.9941 241.295 50.0378 241.794 50.0752C242.617 50.1501 243.291 50.3061 243.816 50.5432C244.352 50.7804 244.745 51.0986 244.995 51.498C245.245 51.8849 245.369 52.3654 245.369 52.9395C245.369 53.5011 245.213 54.0253 244.901 54.512C244.602 55.0113 244.134 55.4106 243.497 55.7102C242.861 56.0222 242.056 56.1782 241.082 56.1782ZM241.082 49.0456C240.296 49.0456 239.616 48.8958 239.042 48.5963C238.48 48.2842 238.043 47.8724 237.731 47.3607C237.432 46.8365 237.282 46.2561 237.282 45.6196C237.282 44.9831 237.432 44.409 237.731 43.8973C238.043 43.3731 238.48 42.955 239.042 42.643C239.616 42.331 240.296 42.175 241.082 42.175C241.881 42.175 242.561 42.331 243.123 42.643C243.697 42.955 244.134 43.3731 244.433 43.8973C244.733 44.409 244.883 44.9831 244.883 45.6196C244.883 46.2561 244.733 46.8365 244.433 47.3607C244.134 47.8724 243.697 48.2842 243.123 48.5963C242.561 48.8958 241.881 49.0456 241.082 49.0456ZM241.082 47.1173C241.569 47.1173 241.962 46.9925 242.262 46.7429C242.561 46.4933 242.711 46.1251 242.711 45.6384C242.711 45.1516 242.561 44.7834 242.262 44.5338C241.962 44.2717 241.569 44.1407 241.082 44.1407C240.608 44.1407 240.215 44.2717 239.903 44.5338C239.603 44.7834 239.454 45.1516 239.454 45.6384C239.454 46.1251 239.603 46.4933 239.903 46.7429C240.215 46.9925 240.608 47.1173 241.082 47.1173ZM242.655 44.1969L242.243 42.3996L246.118 42.3996L246.118 43.8973L242.655 44.1969ZM249.314 51.9286C248.84 51.9286 248.459 51.7913 248.172 51.5167C247.885 51.2297 247.741 50.8802 247.741 50.4683C247.741 50.0565 247.885 49.7133 248.172 49.4387C248.459 49.1516 248.84 49.0081 249.314 49.0081C249.763 49.0081 250.131 49.1516 250.419 49.4387C250.706 49.7133 250.849 50.0565 250.849 50.4683C250.849 50.8802 250.706 51.2297 250.419 51.5167C250.131 51.7913 249.763 51.9286 249.314 51.9286Z" fill="black"/>
</svg>
