<svg width="18" height="18" viewBox="0 0 18 18" fill="none" xmlns="http://www.w3.org/2000/svg">
<path d="M6.91876 10.4176C7.20387 10.7086 7.54419 10.9398 7.91976 11.0976C8.29534 11.2554 8.69863 11.3367 9.10602 11.3367C9.51341 11.3367 9.9167 11.2554 10.2923 11.0976C10.6679 10.9398 11.0082 10.7086 11.2933 10.4176L14.7929 6.91802C15.373 6.33792 15.6989 5.55114 15.6989 4.73076C15.6989 3.91038 15.373 3.1236 14.7929 2.5435C14.2128 1.9634 13.426 1.63751 12.6056 1.63751C11.7853 1.63751 10.9985 1.9634 10.4184 2.5435L9.98092 2.98095" stroke="black" stroke-width="1.58785" stroke-linecap="round" stroke-linejoin="round"/>
<path d="M10.4183 6.91814C10.1332 6.62715 9.79288 6.39597 9.4173 6.23815C9.04173 6.08033 8.63843 5.99904 8.23104 5.99904C7.82366 5.99904 7.42036 6.08033 7.04479 6.23815C6.66921 6.39597 6.3289 6.62715 6.04379 6.91814L2.54418 10.4177C1.96408 10.9978 1.63818 11.7846 1.63818 12.605C1.63818 13.4254 1.96408 14.2122 2.54418 14.7923C3.12427 15.3724 3.91105 15.6983 4.73143 15.6983C5.55181 15.6983 6.33859 15.3724 6.91869 14.7923L7.35614 14.3548" stroke="black" stroke-width="1.58785" stroke-linecap="round" stroke-linejoin="round"/>
<path d="M12.1677 16.5423V14.7925" stroke="black" stroke-width="1.58785" stroke-linecap="round" stroke-linejoin="round"/>
<path d="M14.7928 12.1675H16.5426" stroke="black" stroke-width="1.58785" stroke-linecap="round" stroke-linejoin="round"/>
<path d="M0.793915 5.16907H2.54372" stroke="black" stroke-width="1.58785" stroke-linecap="round" stroke-linejoin="round"/>
<path d="M5.16763 0.793926V2.54373" stroke="black" stroke-width="1.58785" stroke-linecap="round" stroke-linejoin="round"/>
</svg>
